# xmcd
#
# Track frame offsets: 
#        150
#        18271
#        28352
#        38849
#        51257
#        64987
#        75048
#        84315
#        98343
#        110070
#
# Disc length: 1676 seconds
#
# Revision: 0
# Processed by: cddbd v1.5.2PL0 Copyright (c) Steve Scherf et al.
# Submitted via: ExactAudioCopyFreeDBPlugin 1.0
#
DISCID=70068a0a
DTITLE=Johnny Paycheck - Johnny Paycheck
DYEAR=2001
DGENRE=Country
TTITLE0=Billy Jack Washburn
TTITLE1=Motel Time Again
TTITLE2=Jukebox Charlie
TTITLE3=Keep on Lovin Me
TTITLE4=Somebody Loves Me
TTITLE5=Loving You Beats All Ive Ever Seen
TTITLE6=Mr. Lovemaker
TTITLE7=Someone To Give My Love To
TTITLE8=Slide Off Your Satin Sheets (Live)
TTITLE9=Take This Job And Shove It (Live)
EXTD=
EXTT0=
EXTT1=
EXTT2=
EXTT3=
EXTT4=
EXTT5=
EXTT6=
EXTT7=
EXTT8=
EXTT9=
PLAYORDER=
